<?xml version="1.0" standalone="no"?>
<!DOCTYPE svg PUBLIC "-//W3C//DTD SVG 20010904//EN"
 "http://www.w3.org/TR/2001/REC-SVG-20010904/DTD/svg10.dtd">
<svg version="1.0" xmlns="http://www.w3.org/2000/svg"
 width="395.000000pt" height="316.000000pt" viewBox="0 0 395.000000 316.000000"
 preserveAspectRatio="xMidYMid meet">
<metadata>
Created by potrace 1.16, written by Peter Selinger 2001-2019
</metadata>
<g transform="translate(0.000000,316.000000) scale(0.100000,-0.100000)"
fill="#000000" stroke="none">
<path d="M787 2942 l-137 -137 0 -1210 0 -1210 99 -103 c65 -67 114 -109 143
-122 49 -22 198 -50 263 -50 155 0 299 74 376 192 53 83 78 165 90 298 14 164
4 149 413 578 l241 252 346 -347 c219 -220 354 -363 368 -390 28 -57 29 -151
0 -209 -22 -47 -121 -144 -172 -171 -18 -9 -62 -18 -99 -21 -105 -7 -137 10
-285 150 -174 164 -256 234 -303 258 -48 25 -62 25 -83 2 -23 -25 -21 -70 4
-112 11 -19 123 -137 249 -262 l227 -228 173 0 173 0 141 143 c107 108 148
156 170 202 37 77 45 160 21 241 -31 107 -73 156 -547 642 -131 134 -238 248
-238 254 0 6 129 142 288 302 289 293 435 456 469 524 14 29 18 67 21 182 l4
145 -139 136 c-168 164 -213 190 -339 197 -149 8 -214 -30 -464 -275 -183
-178 -230 -237 -230 -289 0 -43 42 -78 84 -70 40 8 64 28 267 216 96 89 197
175 224 191 97 56 174 34 299 -82 87 -81 106 -116 106 -196 0 -82 -23 -114
-243 -345 -164 -172 -473 -468 -496 -476 -12 -4 -267 237 -488 460 l-183 184
0 85 c0 46 -5 137 -10 201 -15 181 -50 251 -167 335 -91 65 -127 73 -327 73
l-171 0 -138 -138z m499 -77 c52 -31 101 -88 114 -135 6 -19 10 -123 10 -230
l0 -195 166 -165 c200 -199 544 -558 544 -568 0 -11 -208 -237 -473 -515
l-237 -248 0 -147 c-1 -165 -10 -220 -46 -275 -32 -49 -87 -74 -192 -86 -110
-12 -161 -1 -247 56 l-72 47 -6 674 c-4 372 -7 898 -7 1170 l0 495 46 54 c79
92 115 105 268 97 72 -3 98 -9 132 -29z"/>
<path d="M958 2723 c-56 -9 -64 -70 -15 -107 39 -29 135 -30 166 -2 25 22 28
77 6 96 -15 13 -113 21 -157 13z"/>
<path d="M985 2308 c-39 -14 -75 -47 -75 -69 0 -33 39 -49 117 -49 79 0 93 10
93 65 0 48 -16 65 -63 64 -23 0 -55 -5 -72 -11z"/>
<path d="M953 1883 c-51 -10 -57 -72 -11 -106 38 -29 144 -30 164 -3 19 26 18
81 -2 100 -15 15 -94 20 -151 9z"/>
<path d="M950 1447 c-24 -8 -36 -19 -38 -35 -10 -67 137 -123 188 -72 21 21
27 74 11 99 -12 19 -116 25 -161 8z"/>
<path d="M960 1023 c-32 -6 -60 -31 -60 -54 0 -33 39 -49 122 -49 68 0 79 3
88 21 36 65 -33 103 -150 82z"/>
<path d="M977 590 c-69 -9 -91 -54 -42 -86 37 -24 154 -23 172 2 44 60 -15 99
-130 84z"/>
</g>
</svg>
