<?xml version="1.0" standalone="no"?>
<!DOCTYPE svg PUBLIC "-//W3C//DTD SVG 20010904//EN"
 "http://www.w3.org/TR/2001/REC-SVG-20010904/DTD/svg10.dtd">
<svg version="1.0" xmlns="http://www.w3.org/2000/svg"
 width="504.000000pt" height="360.000000pt" viewBox="0 0 504.000000 360.000000"
 preserveAspectRatio="xMidYMid meet">

<g transform="translate(0.000000,360.000000) scale(0.100000,-0.100000)"
fill="#000000" stroke="none">
<path d="M1954 2356 l-54 -55 0 -474 0 -475 43 -46 c37 -41 49 -48 104 -58
140 -26 233 57 233 209 0 35 10 48 129 173 l130 135 145 -146 c143 -142 146
-146 146 -189 0 -37 -5 -48 -40 -82 -35 -33 -47 -38 -87 -38 -44 0 -49 3 -133
86 -90 87 -122 102 -128 58 -2 -14 25 -47 97 -117 l100 -97 66 0 66 0 60 57
c71 68 89 111 70 176 -11 34 -43 72 -162 192 -82 82 -149 153 -149 156 0 3 48
53 106 110 59 57 128 130 155 162 47 56 49 61 49 119 l0 61 -62 62 c-54 53
-70 63 -110 69 -63 9 -93 -7 -200 -112 -90 -87 -103 -113 -68 -132 17 -9 32 1
114 80 83 79 99 90 131 90 28 0 45 -9 80 -41 39 -36 45 -47 45 -82 0 -39 -6
-47 -142 -184 -78 -79 -147 -143 -153 -143 -6 0 -67 57 -137 128 l-126 127 -4
87 c-3 96 -17 124 -78 166 -27 18 -47 22 -107 22 l-74 0 -55 -54z m217 -45
c28 -28 29 -33 29 -118 l0 -88 140 -140 c77 -77 140 -144 140 -148 0 -5 -63
-75 -140 -155 l-140 -147 0 -72 c0 -96 -22 -124 -101 -130 -45 -4 -60 -1 -89
19 l-35 24 -3 461 -2 461 26 31 c24 28 31 31 86 31 53 0 63 -3 89 -29z"/>
<path d="M2006 2261 c-13 -20 7 -41 39 -41 21 0 35 6 39 16 9 24 -2 34 -39 34
-19 0 -36 -4 -39 -9z"/>
<path d="M2015 2097 c-25 -19 -10 -37 31 -37 30 0 34 3 34 25 0 19 -5 25 -23
25 -13 0 -31 -6 -42 -13z"/>
<path d="M2006 1931 c-13 -21 7 -41 40 -41 30 0 34 3 34 25 0 22 -4 25 -34 25
-19 0 -37 -4 -40 -9z"/>
<path d="M2005 1760 c-11 -18 15 -40 46 -40 24 0 29 4 29 25 0 22 -4 25 -34
25 -19 0 -38 -5 -41 -10z"/>
<path d="M2007 1593 c-19 -19 -5 -33 33 -33 33 0 40 3 40 20 0 16 -7 20 -33
20 -19 0 -37 -3 -40 -7z"/>
<path d="M2005 1420 c-11 -18 5 -30 41 -30 27 0 34 4 34 20 0 16 -7 20 -34 20
-19 0 -38 -4 -41 -10z"/>
</g>
</svg>
